<?xml version="1.0" standalone="no"?>
<!DOCTYPE svg PUBLIC "-//W3C//DTD SVG 20010904//EN"
 "http://www.w3.org/TR/2001/REC-SVG-20010904/DTD/svg10.dtd">
<svg version="1.0" xmlns="http://www.w3.org/2000/svg"
 width="640.000000pt" height="640.000000pt" viewBox="0 0 640.000000 640.000000"
 preserveAspectRatio="xMidYMid meet">
<metadata>
Created by potrace 1.11, written by Peter Selinger 2001-2013
</metadata>
<g transform="translate(0.000000,640.000000) scale(0.100000,-0.100000)"
fill="#000000" stroke="none">
<path d="M370 5746 c-74 -17 -118 -38 -175 -81 -61 -47 -88 -77 -128 -145 -72
-121 -67 10 -64 -1857 1 -923 5 -1685 8 -1693 3 -8 11 -33 19 -55 55 -165 228
-297 409 -311 36 -3 72 -7 79 -9 6 -2 12 -1 12 3 0 4 24 5 54 4 43 -3 55 -7
55 -20 4 -193 78 -405 197 -560 49 -65 78 -95 158 -166 86 -75 253 -159 371
-186 28 -7 59 -14 70 -17 38 -10 261 -11 310 -1 28 5 59 11 70 13 141 24 350
141 468 262 109 113 214 292 242 413 2 8 8 36 14 62 6 25 13 77 16 114 3 37 8
71 11 75 2 4 47 8 100 8 52 0 99 3 104 6 6 4 10 1 10 -5 0 -6 4 -9 9 -5 12 7
230 10 236 3 3 -3 25 -2 50 2 24 4 49 4 54 1 5 -4 41 -4 80 -1 39 3 71 3 71
-1 0 -3 23 -3 50 1 28 4 50 4 50 1 0 -3 51 -5 112 -3 129 4 199 3 208 -3 3 -2
12 0 19 4 7 5 30 5 51 1 21 -4 45 -3 54 2 13 7 16 4 17 -19 2 -102 23 -216 53
-298 43 -115 114 -242 155 -279 12 -11 21 -23 21 -27 0 -8 55 -63 120 -120 14
-12 54 -40 90 -63 161 -103 301 -146 495 -152 111 -3 207 7 275 30 8 2 33 10
55 17 120 36 283 138 378 236 153 158 260 385 270 576 1 15 5 27 9 27 3 0 3
13 -2 30 -5 18 -5 32 1 36 5 3 42 5 82 4 39 -1 79 -1 87 0 8 0 31 0 50 -1 19
-1 40 -1 45 0 72 4 135 5 135 1 0 -3 31 -3 70 1 54 5 77 12 105 33 61 47 66
74 63 303 l-3 201 -31 39 c-36 44 -90 66 -151 61 -24 -2 -43 -1 -43 2 0 3 -21
4 -47 4 l-48 -2 0 54 c0 30 2 54 5 54 3 0 3 27 0 60 -3 33 -3 65 0 71 4 5 4
27 1 47 -4 20 -4 58 -1 85 4 26 3 47 -1 47 -4 0 -5 8 -3 18 7 26 10 342 3 342
-3 0 -3 23 1 50 4 28 4 50 1 50 -3 0 -4 34 -1 76 3 41 4 77 2 79 -2 2 -5 36
-7 77 -3 82 -31 169 -77 236 -45 65 -1084 1100 -1142 1137 -81 51 -181 78
-286 76 -8 0 -64 0 -125 0 -60 0 -126 -1 -145 -1 -19 -1 -42 -2 -50 -1 -8 0
-34 1 -58 1 -37 0 -42 2 -34 16 5 9 6 33 2 54 -4 21 -4 44 1 51 4 7 6 16 4 19
-2 4 -4 26 -4 51 -1 24 -2 76 -2 114 -1 39 -1 77 0 85 2 30 0 106 -4 145 -21
182 -133 325 -310 396 l-60 24 -1680 2 c-1333 1 -1691 -1 -1735 -11z m1588
-945 c23 3 42 3 42 -1 0 -3 23 -4 50 0 28 4 50 4 50 1 0 -9 224 -7 231 2 8 11
65 -47 67 -67 1 -9 1 -41 1 -71 0 -30 0 -63 0 -72 1 -10 0 -36 0 -58 -1 -22
-1 -47 -1 -55 1 -34 1 -136 1 -150 -1 -8 0 -26 0 -40 1 -14 1 -45 1 -68 0 -55
5 -62 38 -62 15 0 68 1 117 1 50 0 120 1 158 2 37 1 67 -2 67 -6 0 -5 5 -5 10
-2 13 8 161 8 194 -1 42 -10 57 -50 57 -151 0 -10 0 -43 0 -73 0 -30 0 -59 0
-65 0 -5 0 -42 -1 -82 -1 -40 1 -76 4 -82 4 -5 2 -12 -3 -15 -4 -3 -5 -23 -1
-43 4 -22 2 -50 -5 -66 -21 -51 -39 -56 -214 -59 -88 -2 -161 1 -161 5 0 5 -5
5 -10 2 -13 -8 -175 -9 -188 -1 -6 3 -13 2 -16 -2 -3 -5 -18 -7 -32 -4 -18 3
-25 1 -20 -6 5 -9 8 -77 5 -142 -1 -8 -1 -28 0 -45 1 -16 1 -39 1 -50 -1 -17
-2 -265 -1 -305 0 -52 -35 -89 -85 -89 -10 0 -63 0 -117 -1 -54 -2 -100 0
-103 2 -2 3 -24 2 -49 -2 -24 -4 -50 -3 -57 1 -6 4 -15 6 -18 4 -6 -4 -37 -5
-113 -5 -66 0 -100 40 -98 117 1 15 1 37 2 48 0 30 1 218 0 230 0 6 0 33 0 60
0 59 -1 74 -2 138 l-1 49 -39 -4 c-21 -2 -39 -1 -39 2 0 4 -31 4 -140 0 -14
-1 -42 -1 -62 -1 -21 0 -44 0 -50 0 -7 0 -68 0 -136 1 -119 2 -123 3 -150 29
-27 27 -27 29 -22 129 3 56 1 102 -3 102 -5 0 -6 4 -3 9 3 4 5 32 6 62 0 30 0
92 1 139 0 47 1 93 1 102 -1 9 10 28 23 42 22 24 28 25 137 25 62 0 115 1 118
1 19 4 120 4 120 0 0 -3 25 -5 55 -5 30 0 55 3 55 6 0 3 21 3 48 -1 82 -10 81
-11 82 98 0 53 1 104 1 112 1 8 1 33 0 55 -1 22 -1 47 0 55 1 8 1 33 0 55 -1
22 -2 71 -1 108 0 37 -1 71 -4 75 -8 13 29 63 55 76 14 6 42 9 64 6 22 -3 59
-3 83 1z m2362 -481 c6 4 28 4 48 1 20 -3 64 -4 97 -1 135 11 86 50 639 -503
273 -273 497 -502 497 -509 1 -7 1 -16 0 -21 -1 -4 -2 -25 -3 -46 -1 -35 -4
-40 -30 -43 -15 -3 -28 -2 -28 2 0 4 -23 4 -50 0 -28 -4 -53 -4 -55 0 -2 3
-33 3 -70 0 -37 -3 -68 -3 -70 1 -3 3 -25 3 -49 -1 -25 -4 -51 -3 -58 1 -6 4
-15 6 -18 4 -6 -4 -96 -6 -130 -4 -8 1 -31 1 -50 0 -19 -1 -42 -1 -50 0 -8 1
-40 1 -70 0 -30 0 -62 0 -70 0 -8 1 -31 1 -50 0 -19 -1 -42 -1 -50 0 -8 1 -40
1 -70 0 -138 -4 -321 -2 -330 4 -3 2 -12 0 -19 -4 -7 -5 -30 -5 -51 -1 -21 4
-45 3 -54 -2 -14 -8 -17 -4 -17 29 1 66 2 126 3 132 0 3 0 11 -1 16 -5 25 -1
227 4 236 4 5 3 9 -2 9 -8 0 -8 271 1 303 2 9 1 17 -2 17 -4 0 -6 84 -5 187
l2 188 36 2 c20 0 39 3 41 6 3 2 20 1 38 -3 19 -4 39 -4 46 0z m-2565 -2265
c115 -40 216 -129 271 -240 42 -86 45 -98 49 -206 6 -171 -73 -319 -223 -416
-29 -19 -62 -36 -73 -38 -10 -2 -24 -7 -29 -10 -38 -23 -206 -27 -280 -7 -198
56 -338 234 -346 442 -10 228 133 423 356 485 62 17 213 12 275 -10z m3161 12
c41 -10 129 -51 159 -74 130 -100 195 -221 201 -373 9 -211 -113 -393 -314
-471 -59 -23 -197 -31 -271 -17 -58 11 -173 74 -220 120 -98 95 -142 196 -146
331 -4 127 24 217 97 311 59 77 183 157 268 173 13 2 26 6 28 8 5 5 172 -2
198 -8z"/>
</g>
</svg>
