<?xml version="1.0" standalone="no"?>
<!DOCTYPE svg PUBLIC "-//W3C//DTD SVG 20010904//EN"
 "http://www.w3.org/TR/2001/REC-SVG-20010904/DTD/svg10.dtd">
<svg version="1.0" xmlns="http://www.w3.org/2000/svg"
 width="191.000000pt" height="191.000000pt" viewBox="0 0 191.000000 191.000000"
 preserveAspectRatio="xMidYMid meet">
<metadata>
Created by potrace 1.11, written by Peter Selinger 2001-2013
</metadata>
<g transform="translate(0.000000,191.000000) scale(0.100000,-0.100000)"
fill="#000000" stroke="none">
<path d="M80 1473 c-8 -3 -18 -11 -22 -17 -10 -14 -10 -898 0 -913 4 -6 23
-13 42 -15 31 -3 35 -7 38 -33 2 -16 8 -36 14 -43 8 -9 189 -12 844 -12 744 0
834 2 848 16 14 13 16 65 16 417 0 221 -4 407 -8 414 -4 6 -24 14 -45 18 -32
6 -37 11 -37 34 0 35 -17 51 -52 51 -24 0 -28 4 -28 28 0 61 54 57 -807 59
-433 1 -795 -1 -803 -4z m313 -93 l87 0 0 -40 0 -40 45 0 c42 0 45 2 45 26 0
17 4 23 13 18 8 -5 7 -2 -2 9 -8 10 -12 19 -10 21 2 3 37 6 77 7 72 2 73 2
111 -35 25 -24 38 -31 38 -21 0 8 -6 15 -14 15 -7 0 -12 5 -11 12 2 7 -2 12
-9 13 -31 1 -18 11 17 13 22 2 40 -1 40 -5 0 -4 19 -28 42 -53 24 -25 41 -49
40 -53 -1 -5 2 -6 7 -3 5 3 11 -4 14 -16 4 -12 9 -19 13 -15 4 4 14 1 22 -6
13 -10 14 -9 7 3 -6 8 -10 20 -10 25 -1 6 -6 9 -12 8 -6 -1 -35 23 -64 54 -53
56 -54 57 -29 63 38 10 61 0 59 -24 -4 -40 1 -51 26 -63 14 -6 22 -7 19 -1 -4
5 7 8 27 5 19 -2 33 -9 32 -16 -2 -6 3 -10 10 -8 6 1 11 -4 9 -12 -1 -7 3 -19
9 -27 22 -26 -13 -16 -44 14 -25 23 -27 24 -16 5 8 -13 17 -23 20 -23 3 0 3
-19 0 -42 -4 -24 -6 -72 -5 -108 1 -36 2 -136 3 -222 1 -179 -7 -165 102 -160
65 3 68 5 71 30 2 18 8 26 18 24 11 -3 10 1 -3 16 -13 14 -17 32 -15 59 3 37
4 38 45 39 23 1 41 -3 40 -8 -1 -5 14 -21 32 -36 36 -28 34 -15 -2 26 l-20 22
24 0 c14 0 31 -9 39 -20 19 -26 33 -26 25 0 -9 28 7 25 37 -7 20 -22 25 -37
23 -73 0 -25 2 -52 7 -61 5 -11 2 -21 -7 -29 -8 -7 -15 -10 -15 -7 0 3 -3 13
-7 23 -4 11 -2 15 4 11 6 -4 8 3 5 18 -2 14 -8 22 -13 20 -4 -3 -6 -12 -2 -20
3 -8 0 -15 -6 -15 -7 0 -6 -8 4 -23 8 -13 13 -26 10 -29 -3 -3 1 -11 9 -17 11
-9 16 -9 22 0 4 7 3 9 -4 5 -23 -14 -21 14 3 32 29 23 40 23 78 -2 30 -20 35
-33 12 -33 -8 0 -11 5 -8 10 4 6 1 7 -7 2 -9 -6 -11 -4 -5 5 6 9 4 11 -5 5 -9
-6 -11 -4 -5 5 6 9 4 11 -5 5 -9 -6 -11 -4 -5 4 6 10 3 11 -14 2 -25 -14 -27
-19 -5 -17 9 0 19 -5 22 -13 3 -10 0 -11 -9 -5 -12 7 -12 5 0 -9 7 -9 17 -14
22 -11 5 3 9 1 9 -3 0 -5 6 -18 14 -28 13 -18 14 -18 9 7 -9 46 16 41 75 -16
l57 -56 -67 1 c-38 1 -68 6 -68 11 0 5 5 6 10 3 16 -10 11 1 -7 16 -11 10 -14
10 -9 2 9 -16 -6 -17 -21 -2 -8 8 -13 7 -18 -2 -5 -7 -4 -10 2 -6 6 4 16 0 23
-8 11 -13 7 -15 -28 -15 l-40 0 0 41 c-1 41 -1 41 20 22 21 -18 21 -18 9 4
-15 30 -19 31 -76 24 l-50 -6 3 -43 3 -42 -68 0 c-41 0 -74 5 -82 13 -11 10
-13 10 -7 0 10 -19 -364 -19 -383 -1 -9 8 -12 9 -7 1 4 -8 -14 -11 -64 -11
l-70 0 0 45 0 44 -47 -3 -48 -3 3 -41 3 -42 -40 2 c-26 1 -49 9 -68 26 l-28
25 24 -27 24 -28 -27 0 c-21 0 -27 4 -22 15 7 19 1 19 -19 -1 -14 -15 -20 -12
-66 33 -28 26 -63 64 -79 83 l-28 36 76 1 c45 1 78 6 80 12 2 6 9 8 15 5 8 -5
8 -2 0 7 -7 7 -13 24 -13 38 l0 24 25 -23 c20 -19 23 -26 12 -39 -10 -14 -10
-14 4 -4 9 7 20 10 25 5 5 -4 -4 8 -21 27 l-30 33 37 -4 c20 -2 36 -1 36 2 0
3 1 10 2 15 1 6 1 25 0 43 -1 25 3 32 16 32 25 0 64 -39 64 -64 0 -15 10 -24
35 -32 25 -8 36 -8 40 0 2 6 4 -8 2 -31 -3 -46 -3 -46 56 -43 21 1 45 -4 54
-12 12 -9 15 -9 9 0 -12 19 5 14 33 -10 l26 -23 -19 23 c-19 22 -19 22 2 22
22 0 22 0 22 267 0 264 0 266 20 248 11 -10 17 -23 13 -29 -3 -6 -2 -7 3 -3
15 14 10 31 -11 42 -18 10 -35 55 -20 55 13 0 34 -28 27 -35 -4 -5 -1 -5 6 0
10 5 6 15 -19 41 -22 23 -36 31 -43 24 -13 -13 -163 -13 -171 0 -3 6 -12 10
-18 10 -7 -1 -2 -9 11 -19 21 -18 22 -25 22 -180 l0 -161 -40 0 -40 0 0 45 0
45 -41 0 c-33 0 -42 -4 -46 -21 -4 -16 -8 -17 -14 -7 -6 9 -9 9 -9 1 0 -6 5
-15 10 -18 15 -9 12 -45 -3 -45 -7 0 -19 6 -26 13 -11 10 -13 10 -7 0 5 -9 0
-13 -13 -13 -18 0 -21 6 -21 41 0 29 3 38 13 33 9 -6 8 -3 -1 9 -8 9 -13 37
-12 69 1 29 1 83 1 121 l-1 67 -47 0 c-30 0 -54 6 -67 18 -20 16 -20 16 -7 0
12 -16 10 -18 -23 -18 -36 0 -41 -6 -38 -49 0 -8 -7 -21 -16 -28 -14 -11 -15
-12 -1 -8 12 5 16 -2 17 -35 1 -30 -1 -39 -11 -34 -9 5 -9 4 1 -7 15 -17 16
-131 0 -147 -9 -9 -16 -8 -30 5 -10 9 -18 14 -18 11 0 -2 12 -15 27 -29 14
-13 23 -19 19 -12 -3 6 -2 14 4 18 6 4 10 -15 9 -55 -2 -61 -2 -61 -22 -43
-14 11 -11 6 6 -15 38 -47 23 -61 -22 -20 -34 31 -34 31 -8 2 15 -17 24 -34
20 -38 -5 -4 -3 -7 2 -6 21 5 27 -1 16 -14 -8 -10 -9 -16 -1 -21 5 -3 10 -18
10 -33 l0 -26 -40 39 c-39 38 -57 71 -23 44 15 -13 15 -12 0 11 -11 17 -16 45
-15 88 l2 62 28 -27 c18 -17 27 -21 23 -11 -4 9 -18 24 -31 33 -22 14 -24 22
-24 102 l0 86 23 -19 22 -19 -22 26 c-25 28 -34 117 -11 103 7 -5 8 -3 2 7 -5
8 -9 31 -10 52 l-1 38 36 -33 36 -33 -36 40 c-20 22 -36 49 -37 60 0 19 5 20
81 18 45 -1 121 -2 170 -3z m1180 -17 c17 -14 19 -14 9 -1 -8 10 -9 19 -3 22
14 9 23 -11 16 -33 -10 -34 5 -51 45 -51 38 0 39 0 42 -42 3 -36 6 -43 24 -43
12 -1 30 -7 40 -15 14 -12 16 -12 9 -1 -5 10 -4 12 3 7 7 -4 12 -26 12 -48 l0
-41 -22 19 -23 19 22 -25 c21 -24 22 -32 21 -267 -1 -134 -5 -243 -9 -243 -5
0 -4 -12 1 -26 13 -32 12 -37 0 -29 -14 9 -13 -8 2 -23 9 -9 5 -12 -19 -12
-21 0 -42 11 -69 35 -49 45 -58 45 -14 0 19 -19 29 -35 23 -35 -6 0 -29 20
-51 44 -22 24 -44 41 -48 38 -4 -4 -4 -2 -1 4 4 6 -3 20 -16 30 -18 16 -19 16
-8 2 22 -29 7 -21 -27 15 l-32 33 38 2 c35 2 44 -2 85 -48 25 -27 49 -50 53
-50 3 0 2 6 -5 13 -8 10 -7 17 1 25 7 7 9 13 5 13 -4 1 -13 2 -19 3 -7 1 -12
8 -10 16 3 11 0 11 -14 -1 -16 -12 -17 -12 -11 5 5 13 3 17 -6 13 -15 -6 -15
-20 -16 296 l-1 237 -45 0 -45 0 0 40 0 40 -72 0 c-40 1 -134 1 -209 1 l-136
0 -28 29 c-15 16 -31 28 -34 26 -3 -2 -11 2 -18 9 -10 10 -5 13 23 13 20 0 37
2 39 4 2 1 110 2 240 1 214 -1 239 -3 258 -20z m-541 -18 c3 3 11 -1 17 -9 9
-11 9 -16 0 -22 -8 -5 -9 -3 -4 6 6 9 4 11 -5 5 -9 -6 -11 -4 -5 5 5 9 4 11
-4 6 -17 -11 5 -36 28 -31 10 2 18 -3 18 -10 0 -8 -5 -11 -11 -8 -6 4 -5 -1 2
-10 8 -9 12 -24 10 -35 -3 -18 -4 -18 -23 1 -11 11 -13 16 -6 12 9 -5 5 6 -8
23 -12 18 -27 32 -32 32 -5 0 -9 12 -9 26 0 21 3 24 13 15 8 -6 16 -9 19 -6z
m388 -210 c0 -66 -2 -74 -17 -69 -17 5 -17 5 0 -6 12 -8 17 -24 17 -57 0 -38
-2 -44 -14 -34 -10 8 -16 9 -21 1 -4 -6 -46 -10 -111 -9 l-104 1 0 26 c1 26 1
26 15 8 8 -11 15 -15 15 -10 0 6 -7 19 -15 30 -22 29 -18 40 8 18 l22 -19 -21
25 c-18 21 -22 38 -21 96 l0 71 45 2 c25 1 47 2 48 4 1 1 36 1 78 -1 l76 -4 0
-73z m-850 -275 c0 -5 -4 -10 -9 -10 -6 0 -13 5 -16 10 -3 6 1 10 9 10 9 0 16
-4 16 -10z m850 -10 c0 -11 -2 -20 -3 -20 -2 0 -12 9 -22 20 -18 19 -17 20 3
20 15 0 22 -6 22 -20z m-1203 -150 c7 0 10 -7 6 -15 -3 -10 0 -15 8 -13 8 2
13 -2 12 -9 -2 -6 5 -15 15 -18 9 -4 38 -31 65 -60 l47 -52 -70 -1 -70 -1 0
45 c0 44 -4 48 -43 44 -20 -2 -47 17 -47 32 0 6 12 3 26 -7 34 -22 39 -15 9
11 -13 12 -26 19 -29 17 -3 -3 -5 19 -4 48 l0 54 31 -38 c18 -20 37 -37 44
-37z m1448 -52 c5 4 5 1 1 -6 -6 -10 -11 -10 -22 -1 -8 6 -14 14 -14 16 0 3 6
0 13 -6 8 -6 18 -7 22 -3z"/>
<path d="M170 1266 c14 -13 27 -22 29 -20 7 6 -31 44 -43 44 -6 0 1 -11 14
-24z"/>
<path d="M890 1242 c0 -5 7 -15 15 -22 9 -8 12 -17 6 -24 -14 -19 -9 -45 8
-38 10 4 11 7 3 10 -7 2 -12 8 -12 13 0 6 4 8 9 4 15 -9 4 34 -13 51 -9 8 -16
11 -16 6z"/>
<path d="M530 1216 c0 -2 8 -10 18 -17 15 -13 16 -12 3 4 -13 16 -21 21 -21
13z"/>
<path d="M946 1201 c-3 -5 0 -16 8 -24 8 -8 13 -17 11 -19 -3 -3 1 -5 8 -5 8
0 14 6 14 14 0 18 -34 47 -41 34z m25 -18 c13 -16 12 -17 -3 -4 -10 7 -18 15
-18 17 0 8 8 3 21 -13z"/>
<path d="M533 1132 c10 -10 14 -22 10 -27 -5 -4 -2 -5 5 -1 11 6 10 12 -4 27
-9 10 -19 19 -22 19 -3 0 2 -8 11 -18z"/>
<path d="M959 1087 c14 -15 25 -27 26 -27 0 0 1 9 1 19 0 11 -4 17 -9 14 -4
-2 -16 1 -25 8 -9 8 -6 1 7 -14z"/>
<path d="M433 1035 c0 -8 4 -12 9 -9 5 3 6 10 3 15 -9 13 -12 11 -12 -6z"/>
<path d="M950 1041 c0 -5 5 -13 10 -16 6 -3 10 -2 10 4 0 5 -4 13 -10 16 -5 3
-10 2 -10 -4z"/>
<path d="M1205 840 c-3 -5 -1 -10 4 -10 6 0 11 5 11 10 0 6 -2 10 -4 10 -3 0
-8 -4 -11 -10z"/>
<path d="M1365 821 c-3 -5 5 -22 18 -36 l23 -27 0 25 c0 25 -31 54 -41 38z"/>
<path d="M1260 795 c13 -14 28 -25 33 -25 12 0 -35 50 -47 50 -5 0 1 -11 14
-25z"/>
<path d="M1350 786 c0 -4 7 -14 15 -22 8 -9 15 -11 15 -6 0 5 -7 15 -15 22 -8
7 -15 9 -15 6z"/>
<path d="M1326 738 c3 -5 10 -6 15 -3 13 9 11 12 -6 12 -8 0 -12 -4 -9 -9z"/>
<path d="M1340 703 c0 -15 19 -37 26 -31 3 4 -1 14 -10 23 -9 9 -16 13 -16 8z"/>
<path d="M496 677 c3 -10 9 -15 12 -12 3 3 0 11 -7 18 -10 9 -11 8 -5 -6z"/>
<path d="M490 623 c0 -5 16 -25 37 -44 l36 -34 -21 31 c-24 36 -52 61 -52 47z"/>
<path d="M505 570 c10 -11 20 -20 23 -20 3 0 -3 9 -13 20 -10 11 -20 20 -23
20 -3 0 3 -9 13 -20z"/>
<path d="M888 559 c7 -9 24 -16 38 -16 13 0 24 0 22 1 -2 1 -12 8 -22 16 -13
10 -17 10 -12 3 4 -7 3 -13 -1 -13 -5 0 -15 6 -23 13 -12 10 -12 9 -2 -4z"/>
<path d="M1540 566 c0 -2 8 -10 18 -17 15 -13 16 -12 3 4 -13 16 -21 21 -21
13z"/>
<path d="M1396 1318 c3 -5 10 -6 15 -3 13 9 11 12 -6 12 -8 0 -12 -4 -9 -9z"/>
<path d="M1610 780 c0 -5 5 -10 11 -10 6 0 38 -26 72 -57 l62 -57 -65 67 c-63
65 -80 78 -80 57z"/>
<path d="M1690 678 c41 -45 50 -53 50 -45 0 2 -21 23 -47 47 l-48 45 45 -47z"/>
<path d="M1200 1165 c14 -16 28 -31 33 -33 4 -2 4 -9 1 -14 -4 -6 -2 -8 3 -5
11 7 37 -16 28 -25 -3 -2 8 -17 25 -31 16 -15 30 -22 30 -17 0 6 -7 13 -15 16
-8 4 -12 10 -9 15 3 5 0 8 -8 7 -7 -2 -12 2 -11 8 1 6 -21 33 -50 60 -28 27
-40 36 -27 19z"/>
<path d="M1330 1143 c0 -5 15 -22 32 -39 26 -23 29 -24 13 -4 -33 40 -45 52
-45 43z"/>
<path d="M1240 1073 c13 -18 25 -33 27 -33 8 0 -17 38 -33 51 -11 9 -9 2 6
-18z"/>
<path d="M1340 1086 c0 -2 8 -10 18 -17 15 -13 16 -12 3 4 -13 16 -21 21 -21
13z"/>
<path d="M1359 1027 c15 -19 1 -30 -18 -14 -14 11 -14 10 -2 -6 11 -13 17 -15
27 -6 11 9 11 15 3 25 -6 8 -14 14 -16 14 -3 0 0 -6 6 -13z"/>
<path d="M1290 1010 c6 -11 15 -20 21 -20 6 0 8 -4 5 -8 -3 -5 2 -9 10 -9 10
0 6 9 -13 29 -32 33 -38 35 -23 8z"/>
<path d="M192 663 c24 -25 53 -55 66 -67 12 -11 20 -26 17 -34 -3 -9 0 -12 9
-9 8 3 16 1 18 -5 2 -6 9 -8 15 -5 8 5 -8 25 -40 55 -28 26 -65 62 -81 80 -16
17 -34 32 -38 32 -5 0 10 -21 34 -47z"/>
</g>
</svg>
